<svg width="52" height="24" viewBox="0 0 52 24" fill="none" xmlns="http://www.w3.org/2000/svg">
<rect width="52" height="24" rx="12" fill="#E2E4EA"/>
<path fill-rule="evenodd" clip-rule="evenodd" d="M9.33331 6.82501H8.66665L8.66663 16.05H9.33331C10.9244 16.05 11.9276 16.318 12.6463 16.6819C13.5782 17.1537 14.2815 17.9156 14.8889 18.75C15.4962 17.9156 16.1996 17.1537 17.1315 16.6819C17.8502 16.318 18.8534 16.05 20.4445 16.05H21.1112L21.1111 6.82501H20.4445C18.7022 6.82501 17.4832 7.11949 16.5352 7.5994C15.8497 7.94645 15.3325 8.37884 14.8889 8.80398C14.4453 8.37884 13.9281 7.94645 13.2426 7.5994C12.2946 7.11949 11.0756 6.82501 9.33331 6.82501ZM9.99997 14.7153V8.19195C11.2141 8.25617 12.0336 8.49671 12.6463 8.80688C13.2858 9.13063 13.7401 9.5479 14.2222 10.0304V16.0978C13.9349 15.8748 13.6133 15.6621 13.2426 15.4744C12.4204 15.0582 11.3944 14.7814 9.99997 14.7153ZM19.7778 14.7153V8.19195C18.5636 8.25617 17.7442 8.49671 17.1315 8.80688C16.492 9.13063 16.0377 9.5479 15.5556 10.0304V16.0978C15.8429 15.8748 16.1644 15.6621 16.5352 15.4744C17.3574 15.0582 18.3834 14.7814 19.7778 14.7153Z" fill="#1A2141"/>
<path fill-rule="evenodd" clip-rule="evenodd" d="M24.2351 17.4926L26.4573 6.24261L27.7648 6.50737L25.5425 17.7574L24.2351 17.4926Z" fill="#1A2141"/>
<path fill-rule="evenodd" clip-rule="evenodd" d="M37.1112 5.69998C35.4728 5.69998 33.2544 6.49974 32.1105 8.2529L32.0001 8.42214V11.325H31.3218L31.1391 11.4729C30.4879 12.0004 29.7778 12.8507 29.7778 14.25C29.7778 15.6492 30.4879 16.4996 31.1391 17.0271L31.3218 17.175H34.4445V11.325H33.3334V8.83835C34.2004 7.66713 35.8427 7.04998 37.1112 7.04998C38.4296 7.04998 40.0429 7.53701 40.8889 8.81933V11.325H39.7778V17.175H42.9006L43.0832 17.0271C43.7344 16.4995 44.4445 15.6492 44.4445 14.25C44.4445 12.8507 43.7344 12.0004 43.0832 11.4729L42.9006 11.325H42.2223V8.44L42.1291 8.28086C40.9699 6.3002 38.7055 5.69998 37.1112 5.69998ZM31.8011 15.825H33.1112V12.675H31.8011C31.4172 13.0316 31.1112 13.5069 31.1112 14.25C31.1112 14.9931 31.4172 15.4684 31.8011 15.825ZM41.1112 12.675H42.4212C42.8051 13.0316 43.1112 13.5068 43.1112 14.25C43.1112 14.9931 42.8051 15.4684 42.4212 15.825H41.1112L41.1112 12.675Z" fill="#1A2141"/>
</svg>
