<svg width="24" height="24" viewBox="0 0 24 24" fill="none" xmlns="http://www.w3.org/2000/svg">
<rect width="24" height="24" rx="12" fill="#E2E4EA"/>
<path fill-rule="evenodd" clip-rule="evenodd" d="M6.37497 6.82501H5.69997L5.69995 16.05H6.37497C7.98591 16.05 9.00167 16.318 9.72934 16.6819C10.6729 17.1537 11.3851 17.9156 12 18.75C12.6149 17.9156 13.3271 17.1537 14.2706 16.6819C14.9983 16.318 16.0141 16.05 17.625 16.05H18.3L18.3 6.82501H17.625C15.861 6.82501 14.6267 7.11949 13.6669 7.5994C12.9728 7.94645 12.4491 8.37884 12 8.80398C11.5509 8.37884 11.0272 7.94645 10.3331 7.5994C9.37326 7.11949 8.13902 6.82501 6.37497 6.82501ZM7.04997 14.7153V8.19195C8.2793 8.25617 9.10901 8.49671 9.72934 8.80688C10.3768 9.13063 10.8368 9.5479 11.325 10.0304V16.0978C11.0341 15.8748 10.7085 15.6621 10.3331 15.4744C9.50065 15.0582 8.46182 14.7814 7.04997 14.7153ZM16.95 14.7153V8.19195C15.7207 8.25617 14.891 8.49671 14.2706 8.80688C13.6231 9.13063 13.1631 9.5479 12.675 10.0304V16.0978C12.9659 15.8748 13.2915 15.6621 13.6669 15.4744C14.4993 15.0582 15.5382 14.7814 16.95 14.7153Z" fill="#1A2141"/>
</svg>
